<svg width="50" height="50" viewBox="0 0 50 50" fill="none" xmlns="http://www.w3.org/2000/svg">
<path d="M46.0938 36.7188C46.0938 31.8758 42.9273 27.7641 38.5578 26.3297C40.2695 25.2141 41.4062 23.2852 41.4062 21.0938C41.4062 17.6477 38.6023 14.8438 35.1562 14.8438C34.8258 14.8438 34.5039 14.8773 34.1875 14.9266C34.2312 14.8 34.2867 14.6766 34.325 14.5484L35.9375 14.1687V9.30781L34.3266 8.92813C34.1375 8.29375 33.8836 7.68125 33.5672 7.09766L34.4383 5.68906L31.0297 2.27969L29.6211 3.15156C29.0383 2.83672 28.4258 2.58203 27.7898 2.39219L27.4109 0.78125H22.5891L22.2102 2.39219C21.575 2.58203 20.9617 2.83594 20.3789 3.15156L18.9703 2.27969L15.5617 5.68906L16.4328 7.09766C16.1172 7.68125 15.8633 8.29375 15.6734 8.92813L14.0625 9.30859V14.1703L15.6742 14.55C15.7125 14.6773 15.768 14.8008 15.8117 14.9273C15.4961 14.8773 15.1742 14.8438 14.8438 14.8438C11.3977 14.8438 8.59375 17.6477 8.59375 21.0938C8.59375 23.2852 9.73047 25.2141 11.4422 26.3297C7.07266 27.7641 3.90625 31.8758 3.90625 36.7188V39.8438H16.0367C14.7961 41.6172 14.0625 43.7703 14.0625 46.0938V49.2188H35.9375V46.0938C35.9375 43.7703 35.2039 41.6172 33.9633 39.8438H46.0938V36.7188ZM36.7188 28.125C36.7188 29.3953 36.0031 30.4688 35.1562 30.4688C34.3094 30.4688 33.5938 29.3953 33.5938 28.125C33.5938 27.9031 33.625 27.6836 33.6719 27.4656C34.1609 27.3875 34.6562 27.3438 35.1562 27.3438C35.6633 27.3438 36.1578 27.3953 36.643 27.4734C36.6883 27.6891 36.7188 27.9062 36.7188 28.125ZM25 35.1562C22.4148 35.1562 20.3125 33.0539 20.3125 30.4688C20.3125 27.8836 22.4148 25.7812 25 25.7812C27.5852 25.7812 29.6875 27.8836 29.6875 30.4688C29.6875 33.0539 27.5852 35.1562 25 35.1562ZM18.9187 28.2797C18.9852 28.3117 19.0523 28.3414 19.118 28.375C18.8844 29.0312 18.75 29.7336 18.75 30.4688C18.75 30.7805 18.7805 31.0852 18.825 31.3852L17.7844 33.675L15.8906 31.3086L18.9187 28.2797ZM25 24.2188C22.8453 24.2188 20.9422 25.3148 19.818 26.9789C19.3117 26.7203 18.7859 26.5055 18.2469 26.3289C19.9578 25.2125 21.0938 23.2844 21.0938 21.0938C21.0938 20.9484 21.082 20.8063 21.0719 20.6641C21.4422 20.8273 21.8219 20.9688 22.2102 21.0852L22.5891 22.6961H27.4109L27.7898 21.0852C28.1781 20.9688 28.5578 20.8273 28.9281 20.6641C28.918 20.8063 28.9062 20.9484 28.9062 21.0938C28.9062 23.2852 30.0422 25.2125 31.7531 26.3289C31.2148 26.5047 30.6891 26.7211 30.1828 26.9797C29.0586 25.3156 27.1547 24.2188 25 24.2188ZM39.8438 21.0938C39.8438 23.6789 37.7414 25.7812 35.1562 25.7812C32.5711 25.7812 30.4688 23.6789 30.4688 21.0938C30.4688 18.5086 32.5711 16.4062 35.1562 16.4062C37.7414 16.4062 39.8438 18.5086 39.8438 21.0938ZM17.0648 13.7094L16.9508 13.2445L15.625 12.932V10.5445L16.95 10.2328L17.0641 9.76797C17.2609 8.96484 17.5781 8.19687 18.0094 7.4875L18.257 7.07891L17.5398 5.92031L19.2 4.26016L20.3586 4.97734L20.7672 4.72891C21.475 4.29922 22.243 3.98047 23.0484 3.78359L23.5133 3.66953L23.8266 2.34375H26.1734L26.4852 3.66875L26.95 3.78281C27.7555 3.98047 28.5234 4.29844 29.2313 4.72813L29.6398 4.97656L30.7984 4.25938L32.4586 5.91953L31.7422 7.07891L31.9898 7.4875C32.4211 8.19687 32.7383 8.96484 32.9352 9.76797L33.0492 10.2328L34.375 10.5453V12.9328L33.05 13.2445L32.9359 13.7094C32.7781 14.3555 32.5219 14.9852 32.1977 15.5906C30.9578 16.2602 29.9688 17.3367 29.4102 18.6398L29.232 18.7477C28.5242 19.1773 27.7563 19.4961 26.9508 19.693L26.4859 19.807L26.1742 21.132H23.8273L23.5156 19.8062L23.0508 19.6922C22.2469 19.4953 21.4789 19.1773 20.7695 18.7469L20.5914 18.6391C20.0328 17.3352 19.0437 16.2586 17.8039 15.5891C17.4789 14.9852 17.2227 14.3555 17.0648 13.7094ZM10.1562 21.0938C10.1562 18.5086 12.2586 16.4062 14.8438 16.4062C17.4289 16.4062 19.5312 18.5086 19.5312 21.0938C19.5312 23.6789 17.4289 25.7812 14.8438 25.7812C12.2586 25.7812 10.1562 23.6789 10.1562 21.0938ZM17.3133 27.6758L14.8438 30.1453L12.3812 27.6828C13.1672 27.468 13.9906 27.3438 14.8438 27.3438C15.6836 27.3438 16.5133 27.4578 17.3133 27.6758ZM13.7969 31.3078L11.9031 33.6742L9.72188 28.8758C10.0578 28.6555 10.4109 28.4617 10.775 28.2852L13.7969 31.3078ZM5.46875 36.7188C5.46875 34.0172 6.62422 31.5859 8.45937 29.8734L11.5344 36.6383L14.8438 32.5008L18.1531 36.6383L19.5617 33.5391C20.0578 34.4141 20.7578 35.1578 21.5977 35.7055C19.9883 36.2336 18.5437 37.1234 17.3594 38.282H9.375V33.5945H7.8125V38.282H5.46875V36.7188ZM25 36.7188C26.3578 36.7188 27.6453 37.0148 28.8117 37.5367L25 46.4492L21.1883 37.5359C22.3547 37.0148 23.6422 36.7188 25 36.7188ZM15.625 46.0938C15.625 42.8422 17.2898 39.9742 19.8109 38.2922L23.8156 47.6562H19.5312V42.9688H17.9688V47.6562H15.625V46.0938ZM34.375 47.6562H32.0312V42.9688H30.4688V47.6562H26.1844L30.1891 38.2922C32.7102 39.9742 34.375 42.8422 34.375 46.0938V47.6562ZM44.5312 38.2812H42.1875V33.5938H40.625V38.2812H32.6398C31.4555 37.1227 30.0102 36.2328 28.4016 35.7047C30.1133 34.5891 31.25 32.6602 31.25 30.4688C31.25 29.7344 31.1156 29.032 30.882 28.3766C31.2609 28.182 31.6523 28.0133 32.0531 27.8734C32.0484 27.957 32.0312 28.0406 32.0312 28.125C32.0312 30.2789 33.4328 32.0312 35.1562 32.0312C36.8797 32.0312 38.2812 30.2789 38.2812 28.125C38.2812 28.0438 38.2648 27.9641 38.2602 27.8828C41.9062 29.168 44.5312 32.6383 44.5312 36.7188V38.2812Z" fill="#D72DF3"/>
<path d="M25 14.8438C26.7234 14.8438 28.125 13.4422 28.125 11.7188C28.125 9.99531 26.7234 8.59375 25 8.59375C23.2766 8.59375 21.875 9.99531 21.875 11.7188C21.875 13.4422 23.2766 14.8438 25 14.8438ZM25 10.1562C25.8617 10.1562 26.5625 10.857 26.5625 11.7188C26.5625 12.5805 25.8617 13.2812 25 13.2812C24.1383 13.2812 23.4375 12.5805 23.4375 11.7188C23.4375 10.857 24.1383 10.1562 25 10.1562Z" fill="#D72DF3"/>
<path d="M25 17.9688C28.4461 17.9688 31.25 15.1648 31.25 11.7188C31.25 8.27266 28.4461 5.46875 25 5.46875C21.5539 5.46875 18.75 8.27266 18.75 11.7188C18.75 15.1648 21.5539 17.9688 25 17.9688ZM25 7.03125C27.5852 7.03125 29.6875 9.13359 29.6875 11.7188C29.6875 14.3039 27.5852 16.4062 25 16.4062C22.4148 16.4062 20.3125 14.3039 20.3125 11.7188C20.3125 9.13359 22.4148 7.03125 25 7.03125Z" fill="#D72DF3"/>
</svg>
