<svg width="50" height="50" viewBox="0 0 50 50" fill="none" xmlns="http://www.w3.org/2000/svg">
<g clip-path="url(#clip0_1_293)">
<path d="M48.8908 8.43169L25.5658 0.0983566C25.1975 -0.0316462 24.7958 -0.0316462 24.4275 0.0983566L1.10833 8.43169C0.4474 8.66993 0.00683594 9.29705 0.00683594 9.99961C0.00683594 10.7022 0.4474 11.3293 1.10833 11.5675L12.5 15.6375V20.8334C12.5 24.0734 23.7208 24.1667 25 24.1667C26.2792 24.1667 37.5 24.0734 37.5 20.8334V15.6375L40 14.75V16.6667C40 17.5872 40.7462 18.3334 41.6667 18.3334H43.3333C44.2538 18.3334 45 17.5872 45 16.6667V14.1667C44.9975 13.7808 44.9045 13.4009 44.7283 13.0575L48.895 11.5675C49.5559 11.3293 49.9965 10.7022 49.9965 9.99961C49.9965 9.29705 49.5559 8.66993 48.895 8.43169H48.8908ZM35.8333 19C32.6592 17.555 25.9708 17.5 25 17.5C24.0292 17.5 17.3408 17.555 14.1667 19V11.74C14.6667 11.0984 18.5967 10 25 10C31.4033 10 35.3333 11.0984 35.8333 11.74V19ZM25 22.5C18.8333 22.5 14.9608 21.4817 14.2367 20.8334C14.9608 20.185 18.835 19.1667 25 19.1667C31.165 19.1667 35.0392 20.185 35.7633 20.8334C35.0392 21.4817 31.1667 22.5 25 22.5ZM40.3908 12.8375L37.5 13.8684V11.6667C37.5 8.42669 26.2792 8.33336 25 8.33336C23.7208 8.33336 12.5 8.42669 12.5 11.6667V13.8675L1.66667 10L25.0117 1.66669L41.6667 7.61836V11.82C41.1397 12.0073 40.6906 12.3655 40.3908 12.8375ZM43.3333 16.6667H41.6667V14.1667C41.6667 13.7065 42.0398 13.3334 42.5 13.3334C42.9602 13.3334 43.3333 13.7065 43.3333 14.1667V16.6667ZM43.3333 11.7867V8.21419L48.3333 10L43.3333 11.7867Z" fill="#0ED984"/>
<path d="M47.5 25.8333C47.45 25.8332 47.4 25.8376 47.3508 25.8467C39.9569 26.9962 32.4826 27.5491 25 27.5C17.5174 27.5491 10.0431 26.9962 2.64917 25.8467C2.59988 25.8382 2.55 25.8338 2.5 25.8333C1.91667 25.8333 0 26.4941 0 35C0 43.5058 1.91667 44.1667 2.5 44.1667C2.55004 44.1656 2.59992 44.1606 2.64917 44.1516C8.33058 43.2517 14.0653 42.7289 19.8158 42.5867L18.1892 46.4883C17.9392 47.1131 18.0912 47.8269 18.5739 48.2957C19.0565 48.7645 19.7745 48.8955 20.3917 48.6275L21.0292 48.355L21.305 48.9891C21.5655 49.6041 22.1697 50.0025 22.8375 50H22.8583C23.5312 49.9947 24.1343 49.5841 24.3858 48.96L25.8333 45.495L27.2758 48.9467C27.5251 49.5766 28.1309 49.993 28.8083 50H28.8333C29.4966 50.0027 30.0975 49.6091 30.36 49L30.6383 48.3608L31.2658 48.63C31.8857 48.9036 32.6096 48.7733 33.0951 48.3006C33.5806 47.828 33.7303 47.1078 33.4733 46.4808L31.8783 42.6558C37.063 42.8394 42.2316 43.3403 47.355 44.1558C47.4029 44.1637 47.4514 44.1674 47.5 44.1667C48.0833 44.1667 50 43.5058 50 35C50 26.4941 48.0833 25.8333 47.5 25.8333ZM27.6667 29.1417C28.0127 30.4141 28.2143 31.7215 28.2675 33.0391C26.378 32.1605 24.1619 32.3665 22.4667 33.5783C22.424 32.0819 22.2323 30.5934 21.8942 29.135C22.9036 29.1561 23.9389 29.1667 25 29.1667C25.9108 29.1667 26.795 29.1567 27.6667 29.1417ZM25.8333 42.5C23.5321 42.5 21.6667 40.6345 21.6667 38.3333C21.6667 36.0321 23.5321 34.1666 25.8333 34.1666C28.1345 34.1666 30 36.0321 30 38.3333C29.9972 40.6334 28.1334 42.4972 25.8333 42.5ZM2.5 27.9167C3.13851 30.2212 3.41956 32.6101 3.33333 35C3.41956 37.3898 3.13851 39.7787 2.5 42.0833C1.86149 39.7787 1.58044 37.3898 1.66667 35C1.58044 32.6101 1.86149 30.2212 2.5 27.9167ZM4.18333 42.225C4.63917 40.9033 5 38.6917 5 35C5 31.3083 4.63917 29.0966 4.1825 27.7733C9.47799 28.5047 14.8096 28.945 20.1533 29.0925C20.6532 31.0205 20.882 33.0088 20.8333 35C20.8333 35.1208 20.8333 35.2358 20.8283 35.3517C19.8283 37.0113 19.7275 39.0619 20.56 40.8116L20.5233 40.9C15.056 41.034 9.60065 41.4769 4.18333 42.2267V42.225ZM22.8392 48.3333L22.2308 46.9333C22.0479 46.5129 21.5597 46.3193 21.1383 46.5L19.7358 47.12L21.69 42.435C22.4923 43.248 23.5158 43.8072 24.6333 44.0433L22.8392 48.3333ZM30.5283 46.5C30.107 46.3193 29.6188 46.5129 29.4358 46.9333L28.8192 48.3192L27.0325 44.0416C28.1509 43.8055 29.1753 43.2459 29.9783 42.4325L31.9283 47.0992L30.5283 46.5ZM47.3333 42.4583C41.9794 41.6343 36.5808 41.1334 31.1667 40.9583L31.1075 40.815C32.1555 38.6066 31.7062 35.9782 29.9842 34.2433C29.9777 32.5151 29.7781 30.793 29.3892 29.1091C35.3982 28.9746 41.3921 28.4507 47.3333 27.5408C47.72 28.1975 48.3333 30.795 48.3333 35C48.3333 39.205 47.7158 41.8017 47.3333 42.4583Z" fill="#0ED984"/>
</g>
<defs>
<clipPath id="clip0_1_293">
<rect width="50" height="50" fill="white"/>
</clipPath>
</defs>
</svg>
