<svg width="50" height="50" viewBox="0 0 50 50" fill="none" xmlns="http://www.w3.org/2000/svg">
<g clip-path="url(#clip0_1_301)">
<path d="M49.2676 45.3779H46.251V33.9512C46.251 33.5467 45.923 33.2188 45.5186 33.2188C45.1141 33.2188 44.7861 33.5467 44.7861 33.9512V45.3779H38.3594V20.208H44.7861V37.1999C44.7861 37.6044 45.1141 37.9323 45.5186 37.9323C45.923 37.9323 46.251 37.6044 46.251 37.1999V19.4756C46.251 19.0711 45.923 18.7432 45.5186 18.7432H37.627C37.2225 18.7432 36.8945 19.0711 36.8945 19.4756V45.3779H35.2027V23.4216C35.2027 23.0171 34.8748 22.6892 34.4703 22.6892H26.5784C26.1739 22.6892 25.846 23.0171 25.846 23.4216V45.3779H24.1541V29.3405C24.1541 28.936 23.8262 28.6081 23.4217 28.6081H15.5298C15.1253 28.6081 14.7974 28.936 14.7974 29.3405V45.3779H13.1055V34.0757C13.1055 33.6712 12.7775 33.3433 12.373 33.3433H4.48106C4.07656 33.3433 3.74863 33.6712 3.74863 34.0757V45.3779H0.732422C0.32793 45.3779 0 45.7059 0 46.1104V49.2676C0 49.6721 0.32793 50 0.732422 50H15.3092C15.7137 50 16.0417 49.6721 16.0417 49.2676C16.0417 48.8631 15.7137 48.5352 15.3092 48.5352H1.46484V46.8428H48.5352V48.5352H12.0605C11.6561 48.5352 11.3281 48.8631 11.3281 49.2676C11.3281 49.6721 11.6561 50 12.0605 50H49.2676C49.6721 50 50 49.6721 50 49.2676V46.1104C50 45.7059 49.6721 45.3779 49.2676 45.3779ZM27.3108 24.154H33.7379V45.3779H27.3108V24.154ZM16.2621 30.0729H22.6892V45.3779H16.2621V30.0729ZM5.21348 34.8081H11.6405V45.3779H5.21348V34.8081Z" fill="#3577F6"/>
<path d="M4.38281 26.7188H15.5293C16.176 26.7188 16.7971 26.4456 17.2333 25.9695L26.3124 16.0645H32.4971C33.1145 16.0645 33.6949 15.8242 34.1312 15.388L41.6299 7.88926V10.203C41.6299 10.6075 41.9578 10.9354 42.3623 10.9354H45.5185C45.923 10.9354 46.251 10.6075 46.251 10.203V2.31055C46.251 1.03652 45.2145 0 43.9404 0H36.0488C35.6443 0 35.3164 0.32793 35.3164 0.732422V3.88965C35.3164 4.29414 35.6443 4.62207 36.0488 4.62207H38.3617L31.5404 11.4434H25.2959C24.6499 11.4434 24.0291 11.7165 23.593 12.1925L14.5128 22.0977H12.4932C12.0887 22.0977 11.7607 22.4256 11.7607 22.8301C11.7607 23.2346 12.0887 23.5625 12.4932 23.5625H14.835C15.0402 23.5625 15.2361 23.4764 15.3748 23.325L24.6728 13.1823C24.8323 13.0082 25.0594 12.9083 25.2958 12.9083H31.8437C32.0379 12.9083 32.2242 12.8312 32.3615 12.6938L40.6477 4.40762C40.8571 4.19814 40.9198 3.88311 40.8064 3.60947C40.6931 3.33574 40.426 3.15732 40.1298 3.15732H36.7812V1.46484H43.9403C44.4066 1.46484 44.786 1.84424 44.786 2.31055V9.4707H43.0946V6.12109C43.0946 5.8249 42.9162 5.55781 42.6425 5.44443C42.3689 5.33125 42.0537 5.39375 41.8443 5.60322L33.0954 14.3521C32.9358 14.5117 32.7232 14.5996 32.4971 14.5996H25.9902C25.7849 14.5996 25.5891 14.6857 25.4503 14.8371L16.1533 24.9798C15.9937 25.154 15.7663 25.2539 15.5293 25.2539H5.11523V23.5625H12.4085C12.813 23.5625 13.1409 23.2346 13.1409 22.8301C13.1409 22.4256 12.813 22.0977 12.4085 22.0977H4.38281C3.97832 22.0977 3.65039 22.4256 3.65039 22.8301V25.9863C3.65039 26.3908 3.97832 26.7188 4.38281 26.7188Z" fill="#3577F6"/>
</g>
<defs>
<clipPath id="clip0_1_301">
<rect width="50" height="50" fill="white"/>
</clipPath>
</defs>
</svg>
