<?xml version="1.0" standalone="no"?>
<!DOCTYPE svg PUBLIC "-//W3C//DTD SVG 20010904//EN"
 "http://www.w3.org/TR/2001/REC-SVG-20010904/DTD/svg10.dtd">
<svg version="1.0" xmlns="http://www.w3.org/2000/svg"
 width="623.000000pt" height="623.000000pt" viewBox="0 0 623.000000 623.000000"
 preserveAspectRatio="xMidYMid meet">
<metadata>
Created by potrace 1.14, written by Peter Selinger 2001-2017
</metadata>
<g transform="translate(0.000000,623.000000) scale(0.100000,-0.100000)"
fill="#000000" stroke="none">
<path d="M3090 6031 c-14 -5 -117 -69 -230 -143 -262 -172 -464 -304 -615
-403 -66 -43 -203 -133 -305 -200 -102 -67 -342 -224 -535 -350 -192 -126
-412 -270 -487 -320 -76 -49 -213 -139 -305 -199 -425 -278 -408 -265 -417
-318 -6 -37 18 -71 96 -134 40 -32 75 -61 78 -64 3 -3 55 -46 115 -95 61 -49
126 -103 146 -119 50 -44 78 -66 129 -106 25 -19 47 -37 50 -40 3 -3 30 -25
60 -50 30 -25 60 -49 66 -55 6 -5 26 -21 44 -35 18 -14 38 -30 44 -35 6 -6 36
-30 66 -55 30 -25 61 -51 68 -58 8 -7 30 -25 50 -40 21 -15 42 -32 48 -37 18
-17 7 -65 -39 -180 -59 -145 -102 -309 -132 -500 -13 -81 -13 -400 0 -495 19
-143 23 -160 50 -264 37 -145 72 -239 136 -371 122 -252 212 -380 403 -570
272 -271 585 -448 951 -538 89 -23 123 -29 215 -42 167 -24 397 -24 551 1 14
2 41 6 61 8 130 17 382 95 534 167 139 65 314 176 439 279 60 49 252 247 299
309 221 288 366 630 417 986 24 161 15 491 -16 655 -27 140 -76 297 -130 420
-18 41 -32 87 -31 101 1 21 28 48 126 128 69 56 134 110 145 119 11 9 42 35
70 57 27 22 59 48 70 57 11 9 54 44 95 78 l75 60 3 -392 3 -393 -133 -268
c-130 -263 -133 -271 -135 -339 -3 -111 46 -203 135 -255 67 -40 112 -48 239
-47 145 2 199 20 269 90 63 64 88 134 82 227 -4 56 -18 89 -135 322 l-130 261
-1 477 0 476 38 33 c20 18 57 49 80 68 175 141 185 153 168 218 -9 35 -34 52
-628 440 -80 52 -212 139 -295 193 -82 54 -195 127 -250 163 -55 36 -107 70
-115 76 -8 6 -58 38 -110 72 -52 34 -194 127 -315 207 -121 79 -263 172 -315
206 -52 34 -194 127 -315 206 -573 377 -550 363 -595 350z m200 -326 c85 -55
229 -150 320 -209 435 -284 606 -396 620 -406 8 -6 71 -47 140 -92 69 -44 170
-110 225 -146 140 -92 585 -384 673 -443 41 -27 78 -49 83 -49 5 0 9 -4 9 -10
0 -5 4 -10 9 -10 11 0 404 -260 400 -264 -7 -6 -463 -379 -509 -416 -37 -30
-131 -107 -205 -169 -11 -9 -36 -28 -55 -43 l-36 -27 1 292 c1 289 -3 333 -30
392 -43 90 -184 189 -379 266 -115 46 -466 131 -591 144 -5 0 -35 4 -65 9 -30
5 -66 10 -80 11 -14 1 -59 6 -100 9 -41 4 -86 9 -100 11 -157 23 -773 23
-1015 0 -197 -19 -293 -31 -430 -56 -195 -34 -287 -57 -429 -104 -247 -83
-400 -184 -457 -303 -22 -45 -22 -59 -25 -352 -2 -341 -1 -329 -12 -314 -4 5
-68 59 -142 119 -74 60 -141 115 -148 122 -8 8 -30 26 -50 41 -21 15 -43 32
-50 39 -7 7 -34 29 -60 50 -26 21 -49 40 -52 44 -3 3 -39 32 -80 64 -41 33
-83 67 -93 76 -11 10 -41 35 -68 56 -26 21 -48 40 -48 43 0 3 21 18 47 35 44
27 171 111 592 386 96 63 233 153 305 200 71 46 211 138 312 204 101 66 314
206 473 310 160 105 373 244 473 310 405 267 449 295 460 288 7 -3 82 -52 167
-108z m265 -1339 c22 -2 74 -7 115 -11 263 -23 597 -89 785 -155 150 -53 277
-127 304 -178 7 -14 11 -121 11 -325 l0 -304 -92 46 c-119 59 -358 137 -483
157 -22 3 -43 8 -46 9 -6 5 -236 42 -299 49 -25 3 -72 8 -105 11 -33 4 -70 8
-83 10 -165 26 -856 26 -1087 1 -16 -2 -61 -7 -100 -11 -178 -17 -408 -58
-575 -102 -146 -38 -246 -74 -347 -124 l-93 -46 0 304 c0 204 4 311 11 325 42
79 273 182 554 249 99 23 100 23 165 34 25 4 54 9 65 11 11 2 40 7 65 10 25 3
54 8 65 10 10 2 49 6 85 10 36 3 79 8 95 10 17 2 80 6 140 10 61 3 112 8 114
10 5 5 690 -4 736 -10z m-120 -871 c77 -4 151 -8 165 -10 14 -2 38 -4 53 -4
22 -1 31 -8 42 -35 17 -40 83 -255 95 -311 22 -95 50 -233 55 -270 3 -22 10
-64 15 -93 14 -79 24 -213 25 -331 l0 -105 -770 0 -770 0 0 105 c1 138 10 242
36 399 6 36 12 76 14 90 14 99 102 425 140 516 12 30 18 34 52 35 21 0 47 2
58 5 11 2 90 6 175 10 85 3 156 7 157 8 5 4 339 -2 458 -9z m-1118 -68 c-3
-12 -17 -62 -31 -112 -49 -168 -96 -403 -111 -545 -3 -30 -8 -65 -10 -77 -6
-28 -19 -221 -19 -295 -1 -49 -3 -57 -21 -60 -11 -2 -207 -3 -435 -2 l-415 1
1 59 c2 161 71 430 154 606 17 35 30 78 30 96 0 65 76 129 232 193 70 29 271
91 333 104 321 63 299 61 292 32z m1713 3 c214 -36 478 -116 603 -184 99 -52
137 -96 137 -158 0 -19 4 -38 8 -44 25 -28 114 -271 128 -347 2 -17 7 -33 9
-37 7 -11 36 -194 41 -257 3 -35 2 -63 -3 -64 -42 -4 -847 -2 -855 2 -6 4 -12
44 -14 89 -1 45 -6 112 -9 149 -12 134 -16 177 -20 201 -2 14 -7 45 -10 70 -8
60 -15 101 -30 170 -3 14 -7 36 -10 50 -9 49 -67 276 -81 318 -19 59 -18 64
14 58 15 -3 56 -10 92 -16z m1711 -1017 c87 -173 91 -191 47 -243 -19 -23 -27
-25 -129 -28 -88 -3 -114 -1 -134 12 -26 17 -44 45 -50 77 -5 27 167 372 177
356 4 -7 44 -85 89 -174z m-3595 -353 c3 -86 13 -225 20 -284 8 -64 34 -248
39 -276 8 -39 53 -241 63 -281 l9 -37 -94 -47 c-88 -44 -233 -136 -316 -199
l-35 -26 -63 65 c-127 132 -256 324 -337 502 -76 167 -142 413 -157 591 l-7
72 438 -2 437 -3 3 -75z m1740 -52 c-3 -73 -8 -144 -10 -158 -2 -14 -7 -52
-10 -85 -3 -33 -8 -69 -10 -80 -2 -11 -7 -42 -10 -70 -8 -56 -28 -157 -51
-260 -26 -114 -20 -106 -68 -89 -45 16 -173 50 -222 58 -16 3 -39 8 -50 10
-28 5 -113 17 -155 21 -50 5 -307 5 -355 0 -22 -2 -65 -7 -95 -10 -73 -8 -265
-51 -335 -75 l-55 -19 -6 27 c-3 15 -8 33 -10 41 -8 26 -44 191 -50 229 -3 20
-7 44 -9 52 -4 15 -9 51 -21 145 -11 91 -13 119 -19 258 l-7 137 777 0 778 0
-7 -132z m1068 65 c-36 -410 -218 -812 -496 -1100 -64 -66 -69 -67 -113 -26
-35 33 -186 129 -290 184 -55 29 -101 53 -102 53 -1 1 7 35 17 75 20 74 65
295 74 361 3 19 8 58 11 85 4 28 8 61 10 74 4 23 14 175 20 301 2 30 4 56 4
58 1 1 197 2 436 2 l435 0 -6 -67z m-1539 -932 c109 -19 279 -62 291 -74 8 -8
-54 -156 -108 -257 -200 -379 -450 -509 -680 -354 -136 92 -272 288 -368 529
-17 42 -30 77 -30 80 0 8 172 55 258 71 65 12 82 14 137 20 33 3 61 7 63 8 1
2 73 2 160 1 106 -2 196 -9 277 -24z m-1051 -216 c47 -128 121 -264 210 -388
30 -42 52 -77 47 -77 -13 0 -131 40 -210 72 -124 49 -303 151 -401 227 -25 20
-25 20 -5 36 91 71 309 199 329 192 4 -1 18 -30 30 -62z m1639 13 c68 -39 179
-110 221 -143 22 -17 23 -16 -54 -72 -125 -89 -319 -186 -477 -238 -43 -14
-81 -25 -85 -25 -4 0 19 37 52 82 88 124 137 216 218 411 18 44 21 44 125 -15z"/>
</g>
</svg>
